<svg width="32" height="32" viewBox="0 0 32 32" fill="none" xmlns="http://www.w3.org/2000/svg">
<g clip-path="url(#clip0_13_12)">
<circle cx="16" cy="16" r="16" fill="white"/>
<path fill-rule="evenodd" clip-rule="evenodd" d="M15.4432 24.8689C15.5131 24.8693 18.5926 25.0755 18.8288 24.1473C19.1059 23.0585 20.2446 17.6148 20.3636 17.0458C20.6001 15.9151 18.9516 16.1885 18.3827 13.5842C17.0145 7.32006 24.7557 3.42156 25.8009 10.771C25.9294 11.6745 25.5739 14.2684 24.2878 15.4409C22.747 16.8455 21.9467 16.4334 21.821 17.0395C21.7949 17.1659 20.9231 23.0273 20.9824 23.1871C21.1439 23.6223 22.9384 21.8222 23.7204 20.5048C24.6159 18.9963 24.77 18.3292 26.2855 19.2335C27.1094 19.7252 27.5879 21.147 26.4556 21.0034C25.1297 20.8351 25.8529 22.8017 21.7094 25.4116C19.8 26.6143 11.9618 29.8214 6.53513 21.6365C6.12615 21.0197 6.10804 20.8743 5.3739 21.0141C4.03548 21.2688 5.63265 18.1202 7.36075 19.1191C8.28146 19.6513 7.47503 20.375 10.1626 22.7255C10.9316 23.3981 11.022 23.2977 11.0509 23.2218C11.0662 23.1815 10.403 17.0932 10.0687 16.8015C9.04913 15.9121 6.18235 16.8555 5.91327 8.63716C5.85693 6.91502 6.96749 7.2434 7.09237 7.82097C7.32483 8.89686 7.01656 13.4082 8.74813 12.9444C10.4797 12.4807 7.76148 7.15224 9.30877 6.85964C10.8561 6.56703 10.0892 12.8317 11.9367 12.3369C13.7842 11.8422 10.1567 6.2979 11.9544 6.40146C12.6492 6.44155 13.1227 8.41733 13.5447 10.2456C14.6969 15.2376 11.5265 16.109 11.6114 16.782C11.6285 16.9167 13.1659 24.2126 13.315 24.3939C13.6196 24.7649 15.2689 24.859 15.4432 24.8689Z" fill="#EA4D19"/>
</g>
<defs>
<clipPath id="clip0_13_12">
<rect width="32" height="32" fill="white"/>
</clipPath>
</defs>
</svg>
