<svg width="420" height="420" viewBox="0 0 420 420" fill="none" xmlns="http://www.w3.org/2000/svg">
<circle cx="210" cy="210" r="191.52" fill="white"/>
<path fill-rule="evenodd" clip-rule="evenodd" d="M121.372 283.515C121.649 279.132 125.977 229.565 125.513 228.949C124.649 227.803 96.517 223.13 98.4708 183.153C98.6536 179.412 99.109 152.495 102.772 124.261C105.644 102.127 105.847 101.944 107.255 100.68C109.686 98.4968 117.745 96.803 117.206 106.886C116.948 111.708 117.116 111.709 114.696 167.19C114.609 169.197 112.635 180.592 122.368 180.37C125.526 180.298 130.122 178.447 130.853 173.943C131.638 169.104 131.275 169.088 135.38 112.803C135.766 107.501 135.089 97.8602 142.194 98.7286C148.757 99.5309 147.462 105.916 147.402 117.064C147.096 173.66 146.058 174.041 148.131 177.253C151.452 182.401 163.007 182.268 163.531 173.967C163.838 169.116 163.468 169.106 165.808 113.248C166.021 108.166 164.933 99.0591 171.914 99.1292C178.46 99.1952 177.714 106.244 178.209 114.51C180.5 182 180.5 187.5 177.453 202.013C172.703 220.073 163.287 224.734 161 226C155.987 228.774 154.521 229.265 150.5 230.949C149.557 231.344 149.683 229.465 149.385 243.004C149.307 246.517 148.474 307.505 148.678 308.285C148.932 309.259 203.216 353.901 266.497 311.287C268.746 309.773 268.102 309.191 269.084 298.073C269.524 293.096 274.075 234.059 274.075 234.059C274.075 234.059 274.215 232.236 274.248 231.802C274.622 226.947 274.656 226.339 274.17 226.061C273.473 225.662 258.812 225.689 251.686 194.378C243.434 158.116 254.791 112.598 286.277 105.951C318.532 99.1412 333.949 156.841 322.943 192.262C312.402 226.187 298.736 223.07 298.269 225.44C298.178 225.904 297.415 277.944 297.34 281.073C297.298 282.813 297.072 282.907 297.445 283.172C298.037 283.591 297.987 283.119 298.431 282.556C308.434 269.872 311.676 265.536 312.229 258.133C312.723 251.521 328.921 256.032 334.902 260.404C348.786 270.553 340.491 291.744 331.476 281.746C329.979 280.086 330.106 279.625 329.244 279.863C328.542 280.056 294.093 344.046 221.455 353.256C193.408 356.812 156.717 348.755 127.889 325.463C100.32 303.187 91.7208 282.59 90.5816 282.331C89.7382 282.138 84.5633 289.774 79.9553 283.958C72.732 274.84 83.8146 258.457 99.6562 255.982C101.603 255.677 106.83 256.173 108.792 261.943C110.399 266.667 109.971 266.902 116.83 277.786C117.014 278.078 118.225 280.001 119.209 281.383C120.748 283.543 120.818 283.549 121.372 283.515Z" fill="#F97316"/>
</svg>
