<svg width="420" height="420" viewBox="0 0 420 420" fill="none" xmlns="http://www.w3.org/2000/svg">
<g clip-path="url(#clip0_15_2)">
<path d="M210 0C325.98 0 420 94.0202 420 210C420 325.98 325.98 420 210 420C94.0202 420 0 325.98 0 210C0 94.0202 94.0202 0 210 0ZM156.904 84.0186C133.31 82.6597 180.92 155.428 156.672 161.922C132.424 168.415 142.489 86.1925 122.181 90.0322C101.872 93.8726 137.549 163.809 114.822 169.896C92.0956 175.982 96.1407 116.772 93.0898 102.65C91.4508 95.0698 76.8749 90.7593 77.6143 113.362C81.1459 221.227 118.772 208.846 132.154 220.52C136.542 224.348 145.245 304.254 145.045 304.786C144.666 305.782 143.48 307.1 133.387 298.272C98.1123 267.422 108.697 257.923 96.6123 250.938C73.9312 237.828 52.9687 279.152 70.5352 275.81C80.1707 273.975 80.4084 275.883 85.7764 283.979C157.001 391.405 259.877 349.312 284.938 333.526C339.322 299.272 329.83 273.461 347.232 275.669C362.093 277.554 355.813 258.892 345 252.439C325.11 240.571 323.086 249.327 311.333 269.125C301.069 286.415 277.516 310.043 275.396 304.33C274.619 302.226 286.06 225.306 286.403 223.644C288.053 215.688 298.557 221.097 318.78 202.661C335.66 187.272 340.326 153.228 338.64 141.369C324.921 44.9076 223.318 96.0758 241.275 178.292C248.742 212.474 270.379 208.886 267.275 223.726C265.714 231.194 250.768 302.643 247.131 316.933C244.03 329.115 203.612 326.409 202.694 326.403C200.405 326.273 178.76 325.039 174.762 320.17C172.805 317.785 152.626 222.032 152.402 220.264C151.288 211.431 192.899 199.993 177.777 134.473C172.239 110.477 166.024 84.5447 156.904 84.0186Z" fill="white"/>
</g>
<defs>
<clipPath id="clip0_15_2">
<rect width="420" height="420" fill="white"/>
</clipPath>
</defs>
</svg>
