<svg width="420" height="420" viewBox="0 0 420 420" fill="none" xmlns="http://www.w3.org/2000/svg">
<g clip-path="url(#clip0_13_5)">
<circle cx="210" cy="210" r="210" fill="white"/>
<path fill-rule="evenodd" clip-rule="evenodd" d="M202.695 326.404C203.612 326.409 244.031 329.115 247.131 316.932C250.768 302.643 265.714 231.194 267.275 223.726C270.379 208.886 248.742 212.474 241.275 178.292C223.318 96.0755 324.921 44.9076 338.639 141.369C340.326 153.228 335.66 187.272 318.78 202.661C298.557 221.097 288.053 215.688 286.404 223.644C286.06 225.303 274.619 302.233 275.397 304.33C277.516 310.043 301.069 286.416 311.333 269.125C323.087 249.327 325.109 240.571 345 252.44C355.814 258.893 362.093 277.555 347.233 275.669C329.83 273.461 339.322 299.272 284.939 333.527C259.877 349.312 157.001 391.405 85.7764 283.979C80.4085 275.883 80.1708 273.975 70.5353 275.809C52.9685 279.152 73.9314 237.828 96.6126 250.938C108.697 257.923 98.1126 267.422 133.387 298.272C143.48 307.1 144.667 305.783 145.045 304.786C145.246 304.257 136.542 224.349 132.155 220.52C118.773 208.845 81.1461 221.228 77.6145 113.362C76.875 90.7593 91.4512 95.0694 93.0902 102.65C96.1413 116.771 92.0951 175.982 114.822 169.896C137.549 163.809 101.872 93.8728 122.18 90.0324C142.489 86.192 132.424 168.416 156.672 161.922C180.92 155.428 133.31 82.6596 156.904 84.0189C166.024 84.5451 172.239 110.477 177.778 134.473C192.899 199.993 151.288 211.431 152.403 220.264C152.626 222.032 172.806 317.79 174.762 320.17C178.76 325.039 200.408 326.274 202.695 326.404Z" fill="#EA4D19"/>
</g>
<defs>
<clipPath id="clip0_13_5">
<rect width="420" height="420" fill="white"/>
</clipPath>
</defs>
</svg>
